<?xml version="1.0" encoding="UTF-8" standalone="no"?>
<svg
   width="2105"
   height="2016"
   viewBox="0 0 2105 2016"
   fill="none"
   version="1.1"
   id="svg12"
   sodipodi:docname="lucy_over.svg"
   inkscape:export-filename="..\lucy_over.webp"
   inkscape:export-xdpi="13.68"
   inkscape:export-ydpi="13.68"
   inkscape:version="1.2.1 (9c6d41e410, 2022-07-14)"
   xmlns:inkscape="http://www.inkscape.org/namespaces/inkscape"
   xmlns:sodipodi="http://sodipodi.sourceforge.net/DTD/sodipodi-0.dtd"
   xmlns="http://www.w3.org/2000/svg"
   xmlns:svg="http://www.w3.org/2000/svg">
  <defs
     id="defs16" />
  <sodipodi:namedview
     id="namedview14"
     pagecolor="#ffffff"
     bordercolor="#666666"
     borderopacity="1.0"
     inkscape:showpageshadow="2"
     inkscape:pageopacity="0.0"
     inkscape:pagecheckerboard="0"
     inkscape:deskcolor="#d1d1d1"
     showgrid="false"
     inkscape:zoom="0.20560516"
     inkscape:cx="690.64414"
     inkscape:cy="1585.5633"
     inkscape:window-width="1920"
     inkscape:window-height="1009"
     inkscape:window-x="1912"
     inkscape:window-y="-8"
     inkscape:window-maximized="1"
     inkscape:current-layer="svg12" />
  <path
     d="M842.026 129.177C870.114 49.5833 974.531 31.1719 1028.15 96.3575L1309.17 438.02C1343.94 480.296 1395.4 505.347 1450.14 506.68L1892.78 517.45C1977.29 519.505 2026.92 612.947 1981.45 683.983L1742.87 1056.65C1728.28 1079.43 1718.77 1105.09 1715 1131.88C1711.22 1158.66 1713.27 1185.95 1721 1211.87L1847.34 1635.7C1871.42 1716.45 1797.88 1792.71 1716.03 1771.44L1287.55 1660.11C1261.36 1653.3 1234.01 1652.21 1207.36 1656.91C1180.72 1661.6 1155.39 1671.98 1133.11 1687.34L768.557 1938.51C698.913 1986.48 603.729 1939.98 598.726 1855.86L572.502 1414.38C569.257 1359.74 542.373 1309.24 498.866 1276.01L147.203 1007.41C80.1767 956.216 94.8588 851.43 173.566 820.594L585.833 659.08C636.813 639.107 676.599 597.967 694.813 546.348L842.026 129.177Z"
     fill="#FFAFF3"
     id="path2" />
  <path
     d="M918.91 20.3875C868.969 29.1948 823.32 62.3526 804.42 115.904L657.186 533.07C642.831 573.741 611.52 606.123 571.327 621.871L159.044 783.395C53.2498 824.843 32.7918 970.356 122.981 1039.24L474.644 1307.81C491.576 1320.73 505.522 1337.15 515.528 1355.96C525.534 1374.76 531.366 1395.5 532.625 1416.76L558.835 1858.23C565.559 1971.49 697.668 2035.92 791.287 1971.44L791.289 1971.43L1155.87 1720.26L1155.87 1720.25C1173.42 1708.15 1193.38 1699.97 1214.37 1696.27C1235.37 1692.57 1256.92 1693.43 1277.55 1698.8L1277.55 1698.8L1706.04 1810.11C1816.06 1838.7 1918.17 1732.96 1885.75 1624.22L1885.75 1624.23L1759.42 1200.41L1759.42 1200.41C1753.33 1180 1751.72 1158.52 1754.69 1137.42C1757.66 1116.33 1765.15 1096.13 1776.65 1078.2L1776.65 1078.19L2015.25 705.513L2015.24 705.511C2076.44 609.933 2007.46 480.197 1893.87 477.434L1451.21 466.681C1408.06 465.633 1367.56 445.914 1340.17 412.608L1059.15 70.9554C1023.08 27.1014 968.841 11.5585 918.896 20.3665M932.34 96.6134C955.035 92.6111 979.819 100.451 997.365 121.779L1278.38 463.422C1320.52 514.663 1382.95 545.042 1449.26 546.655L1891.92 557.408C1947.35 558.754 1977.63 615.896 1947.86 662.382L1709.27 1035.06C1673.48 1090.93 1663.8 1159.69 1682.74 1223.26L1809.08 1647.07C1824.81 1699.85 1779.83 1746.62 1726.15 1732.68L1726.15 1732.68L1297.66 1621.36C1233.45 1604.67 1165.09 1616.73 1110.46 1654.38L745.884 1905.55C700.205 1937.02 641.945 1908.45 638.676 1853.48L612.469 1412.01C608.537 1345.78 575.914 1284.5 523.186 1244.22L171.524 975.65C127.662 942.151 136.58 878.1 188.203 857.867L600.485 696.341C662.256 672.139 710.525 622.24 732.608 559.671L732.608 559.669L879.842 142.504C889.034 116.463 909.64 100.618 932.335 96.6154"
     fill="#151515"
     id="path4" />
  <path
     d="M 1203.2063,1248.5663 C 1208.0733,1246.593 1212.5042,1243.6769 1216.2519,1239.9925 1219.9896,1236.3082 1222.9751,1231.9166 1225.0129,1227.0811 1227.0605,1222.2355 1228.1321,1217.0464 1228.1725,1211.795 1228.2129,1206.5435 1227.2138,1201.3298 1225.2405,1196.4628 1220.0833,1183.7789 1212.4851,1172.2269 1202.8673,1162.4695 V 1162.4695 C 1193.2494,1152.7122 1181.8054,1144.9563 1169.1827,1139.6309 L 1169.1725,1139.6211 C 1156.5698,1134.2953 1143.0403,1131.5058 1129.3466,1131.4094 L 1129.3366,1131.4096 1129.3166,1131.4099 C 1115.6332,1131.3233 1102.0656,1133.9252 1089.3816,1139.0724 L 1089.3716,1139.0725 C 1076.6875,1144.2197 1065.1355,1151.8179 1055.3882,1161.4356 L 1055.3782,1161.4358 1055.3783,1161.4458 C 1045.6308,1171.0535 1037.875,1182.4975 1032.5492,1195.1002 1027.2038,1207.7232 1024.4147,1221.2828 1024.3285,1234.9862 1024.2594,1245.589 1028.4041,1255.7897 1035.854,1263.3437 1043.3138,1270.8875 1053.4583,1275.1651 1064.071,1275.234 1069.3225,1275.2744 1074.526,1274.2655 1079.393,1272.2922 1084.2599,1270.3089 1088.6908,1267.3928 1092.4283,1263.6985 1096.166,1260.0142 1099.1415,1255.6228 1101.1791,1250.7773 1103.2169,1245.9419 1104.2884,1240.7428 1104.3188,1235.4916 1104.3447,1232.3206 1104.9912,1229.1792 1106.2315,1226.2576 L 1106.2314,1226.2476 1106.241,1226.2274 C 1107.4812,1223.2958 1109.286,1220.6346 1111.5482,1218.3957 1113.8203,1216.1566 1116.5006,1214.3906 1119.4507,1213.2001 L 1119.4705,1213.1898 C 1122.4304,1211.9891 1125.5906,1211.3851 1128.7813,1211.4007 1131.9622,1211.4264 1135.1139,1212.0827 1138.0455,1213.3229 L 1138.0655,1213.3226 1138.0756,1213.3324 C 1141.0072,1214.5725 1143.6582,1216.3676 1145.8972,1218.6297 L 1145.8973,1218.6397 V 1218.6397 C 1148.1364,1220.9118 1149.9024,1223.5921 1151.1031,1226.552 1153.0764,1231.4191 1155.9924,1235.85 1159.6767,1239.5877 1163.371,1243.3252 1167.7526,1246.3108 1172.5981,1248.3485 1177.4337,1250.3963 1182.6328,1251.4677 1187.8842,1251.5081 1193.1357,1251.5485 1198.3394,1250.5496 1203.2063,1248.5663 Z"
     fill="#151515"
     id="path10" />
  <path
     style="font-variation-settings:normal;opacity:1;vector-effect:none;fill:#151515;fill-opacity:1;stroke:none;stroke-width:37.7953;stroke-linecap:butt;stroke-linejoin:miter;stroke-miterlimit:4;stroke-dasharray:none;stroke-dashoffset:0;stroke-opacity:1;-inkscape-stroke:none;stop-color:#000000;stop-opacity:1"
     d="M 761.16767,1031.1025 C 761.16767,1031.1025 775.75874,938.6924 834.12304,963.01086 860.87334,989.76115 790.34981,1048.1254 790.34981,1048.1254 790.34981,1048.1254 882.75995,1062.7165 865.73703,1101.6261 831.69119,1130.8082 780.62244,1082.1713 780.62244,1082.1713 780.62244,1082.1713 768.46321,1159.9903 722.25814,1155.1267 678.48492,1121.0808 744.14475,1065.1484 744.14475,1065.1484 744.14475,1065.1484 649.30277,1050.5573 680.91676,1021.3751 702.80337,967.87454 761.16767,1031.1025 761.16767,1031.1025 Z"
     id="path354"
     sodipodi:nodetypes="ccccccccc" />
  <path
     style="font-variation-settings:normal;vector-effect:none;fill:#151515;fill-opacity:1;stroke:none;stroke-width:37.7953;stroke-linecap:butt;stroke-linejoin:miter;stroke-miterlimit:4;stroke-dasharray:none;stroke-dashoffset:0;stroke-opacity:1;-inkscape-stroke:none;stop-color:#000000"
     d="M 1402.9225,929.67821 C 1402.9225,929.67821 1417.5136,837.26812 1475.8779,861.58657 1502.6282,888.33687 1432.1047,946.70111 1432.1047,946.70111 1432.1047,946.70111 1524.5148,961.29222 1507.4919,1000.2018 1473.4461,1029.3839 1422.3773,980.74702 1422.3773,980.74702 1422.3773,980.74702 1410.2181,1058.566 1364.013,1053.7024 1320.2398,1019.6565 1385.8996,963.72412 1385.8996,963.72412 1385.8996,963.72412 1291.0576,949.13301 1322.6716,919.95081 1344.5582,866.45026 1402.9225,929.67821 1402.9225,929.67821 Z"
     id="path354-6"
     sodipodi:nodetypes="ccccccccc" />
</svg>
